<svg xmlns="http://www.w3.org/2000/svg" viewBox="0 0 24 24" fill="currentColor">
  <!-- Rocket body -->
  <path d="M12 2C12 2 7 7.5 7 13c0 2.5 1.5 4.5 3 5.5V21h4v-2.5c1.5-1 3-3 3-5.5 0-5.5-5-11-5-11z" opacity="0.9"/>
  <!-- Nose cone highlight -->
  <path d="M12 2C12 2 9 6.5 8.5 11c-.1.7-.1 1.3 0 2h7c.1-.7.1-1.3 0-2C15 6.5 12 2 12 2z" fill="currentColor" opacity="0.7"/>
  <!-- Window -->
  <circle cx="12" cy="10" r="1.5" fill="none" stroke="currentColor" stroke-width="0.8" opacity="0.5"/>
  <!-- Left fin -->
  <path d="M7 13c-1 1-2.5 3-3 4.5L7 16v-3z" opacity="0.8"/>
  <!-- Right fin -->
  <path d="M17 13c1 1 2.5 3 3 4.5L17 16v-3z" opacity="0.8"/>
  <!-- Exhaust flames -->
  <path d="M10 21c.5 1 1 2 2 2s1.5-1 2-2" stroke="currentColor" stroke-width="1" fill="none" opacity="0.5"/>
</svg>
